<?xml version="1.0" encoding="UTF-8"?>
<svg xmlns="http://www.w3.org/2000/svg" xmlns:xlink="http://www.w3.org/1999/xlink" width="48px" height="48px" viewBox="0 0 48 48" version="1.1">
<g id="surface1">
<path style=" stroke:none;fill-rule:nonzero;fill:rgb(36.078432%,55.29412%,73.725492%);fill-opacity:1;" d="M 47.917969 14.117188 C 47.917969 13.3125 47.726562 12.601562 47.332031 11.992188 C 46.949219 11.390625 46.371094 10.886719 45.601562 10.492188 C 39.21875 7.222656 32.835938 3.960938 26.457031 0.6875 C 24.738281 -0.191406 23.070312 -0.160156 21.363281 0.734375 C 18.824219 2.066406 6.109375 8.539062 2.320312 10.488281 C 0.761719 11.292969 0.00390625 12.519531 0.00390625 14.117188 C 0 20.691406 0.00390625 27.265625 0 33.84375 C 0 34.628906 0.1875 35.328125 0.558594 35.929688 C 0.945312 36.546875 1.53125 37.0625 2.320312 37.472656 C 6.109375 39.421875 18.824219 45.894531 21.363281 47.226562 C 23.070312 48.121094 24.738281 48.152344 26.457031 47.269531 C 32.835938 43.996094 39.222656 40.738281 45.601562 37.46875 C 46.390625 37.0625 46.976562 36.542969 47.363281 35.925781 C 47.734375 35.324219 47.921875 34.628906 47.921875 33.839844 C 47.921875 33.839844 47.921875 20.695312 47.917969 14.117188 "/>
<path style=" stroke:none;fill-rule:nonzero;fill:rgb(10.196079%,27.450982%,45.490196%);fill-opacity:1;" d="M 24.035156 23.914062 L 0.558594 35.929688 C 0.945312 36.546875 1.53125 37.0625 2.320312 37.472656 C 6.109375 39.421875 18.824219 45.894531 21.363281 47.226562 C 23.070312 48.121094 24.738281 48.152344 26.457031 47.269531 C 32.835938 43.996094 39.222656 40.738281 45.601562 37.46875 C 46.390625 37.0625 46.976562 36.542969 47.363281 35.925781 L 24.035156 23.914062 "/>
<path style=" stroke:none;fill-rule:nonzero;fill:rgb(10.196079%,27.450982%,45.490196%);fill-opacity:1;" d="M 17.082031 27.472656 C 18.449219 29.59375 21.015625 31.023438 23.960938 31.023438 C 26.925781 31.023438 29.507812 29.574219 30.867188 27.433594 L 24.035156 23.914062 L 17.082031 27.472656 "/>
<path style=" stroke:none;fill-rule:nonzero;fill:rgb(10.588235%,34.901962%,55.686277%);fill-opacity:1;" d="M 47.917969 14.117188 C 47.917969 13.3125 47.726562 12.601562 47.332031 11.992188 L 24.035156 23.914062 L 47.363281 35.925781 C 47.734375 35.324219 47.921875 34.628906 47.921875 33.839844 C 47.921875 33.839844 47.921875 20.695312 47.917969 14.117188 "/>
<path style=" stroke:none;fill-rule:nonzero;fill:rgb(100%,100%,100%);fill-opacity:1;" d="M 46.636719 24.773438 L 44.8125 24.773438 L 44.8125 26.394531 L 42.992188 26.394531 L 42.992188 24.773438 L 41.167969 24.773438 L 41.167969 23.15625 L 42.992188 23.15625 L 42.992188 21.535156 L 44.8125 21.535156 L 44.8125 23.15625 L 46.636719 23.15625 L 46.636719 24.773438 M 39.984375 24.773438 L 38.164062 24.773438 L 38.164062 26.394531 L 36.339844 26.394531 L 36.339844 24.773438 L 34.515625 24.773438 L 34.515625 23.15625 L 36.339844 23.15625 L 36.339844 21.535156 L 38.164062 21.535156 L 38.164062 23.15625 L 39.984375 23.15625 L 39.984375 24.773438 "/>
<path style=" stroke:none;fill-rule:nonzero;fill:rgb(100%,100%,100%);fill-opacity:1;" d="M 30.867188 27.433594 C 29.507812 29.574219 26.925781 31.023438 23.960938 31.023438 C 21.015625 31.023438 18.449219 29.59375 17.082031 27.472656 C 16.394531 26.410156 16.035156 25.207031 16.035156 23.980469 C 16.035156 20.089844 19.585938 16.9375 23.960938 16.9375 C 26.886719 16.9375 29.441406 18.347656 30.816406 20.445312 L 37.742188 16.902344 C 34.988281 12.675781 29.847656 9.835938 23.960938 9.835938 C 15.171875 9.835938 8.046875 16.167969 8.046875 23.980469 C 8.046875 26.542969 8.8125 28.945312 10.15625 31.019531 C 12.902344 35.265625 18.054688 38.125 23.960938 38.125 C 29.878906 38.125 35.039062 35.253906 37.78125 30.996094 L 30.867188 27.433594 "/>
</g>
</svg>
