<?xml version="1.0" encoding="UTF-8"?>
<svg xmlns="http://www.w3.org/2000/svg" xmlns:xlink="http://www.w3.org/1999/xlink" width="48px" height="48px" viewBox="0 0 48 48" version="1.1">
<g id="surface1">
<path style=" stroke:none;fill-rule:nonzero;fill:rgb(63.137257%,47.450981%,86.274511%);fill-opacity:1;" d="M 47.785156 14.210938 C 47.785156 13.410156 47.59375 12.703125 47.207031 12.097656 C 46.824219 11.503906 46.25 11.003906 45.484375 10.609375 C 39.148438 7.363281 32.808594 4.125 26.476562 0.875 C 24.769531 0 23.117188 0.03125 21.421875 0.921875 C 18.898438 2.242188 6.277344 8.667969 2.515625 10.605469 C 0.96875 11.402344 0.214844 12.621094 0.214844 14.207031 C 0.210938 20.734375 0.214844 27.265625 0.210938 33.792969 C 0.210938 34.574219 0.394531 35.265625 0.765625 35.863281 C 1.148438 36.476562 1.730469 36.992188 2.515625 37.394531 C 6.277344 39.332031 18.898438 45.757812 21.421875 47.078125 C 23.117188 47.96875 24.769531 48 26.476562 47.125 C 32.808594 43.875 39.152344 40.636719 45.484375 37.390625 C 46.269531 36.988281 46.851562 36.476562 47.234375 35.863281 C 47.605469 35.265625 47.789062 34.570312 47.789062 33.789062 C 47.789062 33.789062 47.789062 20.738281 47.785156 14.210938 "/>
<path style=" stroke:none;fill-rule:nonzero;fill:rgb(15.686275%,0%,40.784314%);fill-opacity:1;" d="M 24.074219 23.9375 L 0.765625 35.863281 C 1.148438 36.476562 1.730469 36.992188 2.515625 37.394531 C 6.277344 39.332031 18.898438 45.757812 21.421875 47.078125 C 23.117188 47.96875 24.769531 48 26.476562 47.125 C 32.808594 43.875 39.152344 40.636719 45.484375 37.390625 C 46.269531 36.988281 46.851562 36.476562 47.234375 35.863281 Z M 24.074219 23.9375 "/>
<path style=" stroke:none;fill-rule:nonzero;fill:rgb(22.352941%,0%,56.862748%);fill-opacity:1;" d="M 47.785156 14.210938 C 47.785156 13.410156 47.59375 12.703125 47.207031 12.097656 L 24.074219 23.9375 L 47.234375 35.863281 C 47.605469 35.265625 47.789062 34.570312 47.789062 33.789062 C 47.789062 33.789062 47.789062 20.738281 47.785156 14.210938 "/>
<path style=" stroke:none;fill-rule:nonzero;fill:rgb(100%,100%,100%);fill-opacity:1;" d="M 37.792969 19.476562 L 37.792969 21.707031 L 40.300781 21.707031 L 40.300781 19.476562 L 41.558594 19.476562 L 41.558594 21.707031 L 44.066406 21.707031 L 44.066406 22.820312 L 41.558594 22.820312 L 41.558594 25.050781 L 44.066406 25.050781 L 44.066406 26.164062 L 41.558594 26.164062 L 41.558594 28.394531 L 40.300781 28.394531 L 40.300781 26.164062 L 37.792969 26.164062 L 37.792969 28.394531 L 36.539062 28.394531 L 36.539062 26.164062 L 34.03125 26.164062 L 34.03125 25.050781 L 36.539062 25.050781 L 36.539062 22.820312 L 34.03125 22.820312 L 34.03125 21.707031 L 36.539062 21.707031 L 36.539062 19.476562 Z M 40.300781 22.820312 L 37.792969 22.820312 L 37.792969 25.050781 L 40.300781 25.050781 Z M 40.300781 22.820312 "/>
<path style=" stroke:none;fill-rule:nonzero;fill:rgb(100%,100%,100%);fill-opacity:1;" d="M 24.125 8.28125 C 30.667969 8.28125 36.378906 11.441406 39.4375 16.132812 L 39.40625 16.089844 L 31.710938 20.027344 C 30.195312 17.746094 27.414062 16.207031 24.222656 16.171875 L 24.125 16.171875 C 19.261719 16.171875 15.316406 19.675781 15.316406 24 C 15.316406 25.363281 15.714844 26.703125 16.480469 27.882812 C 17.996094 30.238281 20.851562 31.828125 24.125 31.828125 C 27.417969 31.828125 30.289062 30.21875 31.796875 27.835938 L 31.761719 27.894531 L 39.445312 31.851562 C 36.421875 36.507812 30.785156 39.65625 24.320312 39.71875 L 24.125 39.71875 C 17.5625 39.71875 11.832031 36.539062 8.78125 31.820312 C 7.292969 29.519531 6.4375 26.847656 6.4375 24 C 6.4375 15.320312 14.355469 8.28125 24.125 8.28125 Z M 24.125 8.28125 "/>
</g>
</svg>
